<?xml version="1.0" encoding="UTF-8"?>
<!DOCTYPE svg PUBLIC "-//W3C//DTD SVG 1.1//EN" "http://www.w3.org/Graphics/SVG/1.1/DTD/svg11.dtd">
<svg xmlns="http://www.w3.org/2000/svg" version="1.1" width="512px" height="512px" style="shape-rendering:geometricPrecision; text-rendering:geometricPrecision; image-rendering:optimizeQuality; fill-rule:evenodd; clip-rule:evenodd" xmlns:xlink="http://www.w3.org/1999/xlink">
<g><path style="opacity:0.909" fill="#08070a" d="M 119.5,-0.5 C 127.833,-0.5 136.167,-0.5 144.5,-0.5C 224.671,19.1251 305.004,38.6251 385.5,58C 414.977,68.1225 431.81,88.6225 436,119.5C 448.974,214.484 461.807,309.484 474.5,404.5C 472.407,426.925 460.074,438.258 437.5,438.5C 436.365,457.413 430.198,474.413 419,489.5C 407.697,501.733 393.863,509.067 377.5,511.5C 369.5,511.5 361.5,511.5 353.5,511.5C 304.993,502.971 256.327,494.637 207.5,486.5C 206.345,495.653 202.011,502.82 194.5,508C 188.446,508.726 183.612,506.559 180,501.5C 177.268,497.759 174.934,493.759 173,489.5C 167.876,493.312 162.376,496.479 156.5,499C 147.019,501.511 141.185,498.011 139,488.5C 138.006,483.882 137.506,479.215 137.5,474.5C 118.553,473.515 100.887,468.349 84.5,459C 64.4262,444.362 53.5928,424.529 52,399.5C 46.8167,296.668 41.65,193.834 36.5,91C 36.3951,72.6448 42.2285,56.4781 54,42.5C 68.3523,28.8077 83.8523,16.6411 100.5,6C 106.841,3.49832 113.175,1.33165 119.5,-0.5 Z"/></g>
<g><path style="opacity:1" fill="#c2c2fb" d="M 468.5,396.5 C 468.5,397.5 468.5,398.5 468.5,399.5C 450.027,397.587 431.694,394.921 413.5,391.5C 413.423,390.25 412.756,389.417 411.5,389C 322.422,375.489 233.422,361.656 144.5,347.5C 143.255,325.135 141.588,302.801 139.5,280.5C 140.652,275.015 140.818,269.349 140,263.5C 134,192.833 128,122.167 122,51.5C 121.329,50.7476 120.496,50.4142 119.5,50.5C 118.555,35.4963 117.555,20.4963 116.5,5.5C 127.506,2.87014 138.506,3.03681 149.5,6C 229.942,25.3491 310.275,45.0158 390.5,65C 411.24,74.0726 424.406,89.5726 430,111.5C 443.045,206.522 455.879,301.522 468.5,396.5 Z"/></g>
<g><path style="opacity:1" fill="#a1a1f3" d="M 116.5,5.5 C 117.555,20.4963 118.555,35.4963 119.5,50.5C 118.837,52.6413 118.503,54.9746 118.5,57.5C 124.692,131.498 130.859,205.498 137,279.5C 137.671,280.252 138.504,280.586 139.5,280.5C 141.588,302.801 143.255,325.135 144.5,347.5C 119.552,344.607 97.3857,350.941 78,366.5C 77.51,367.793 77.3433,369.127 77.5,370.5C 79.3084,370.509 80.9751,370.009 82.5,369C 100.648,354.627 121.315,348.96 144.5,352C 232.875,365.588 321.209,379.422 409.5,393.5C 411.355,393.66 412.688,392.993 413.5,391.5C 431.694,394.921 450.027,397.587 468.5,399.5C 468.5,398.5 468.5,397.5 468.5,396.5C 471.56,418.685 461.893,431.019 439.5,433.5C 347.767,418.433 256.1,402.933 164.5,387C 146.424,384.442 129.424,387.442 113.5,396C 100.55,406.032 98.0499,418.198 106,432.5C 108.894,435.361 112.061,437.861 115.5,440C 123.97,443.877 132.636,447.044 141.5,449.5C 139.983,456.084 138.983,462.751 138.5,469.5C 111.974,469.479 89.807,459.813 72,440.5C 63.2656,428.638 58.2656,415.304 57,400.5C 51.1014,293.529 46.1014,186.529 42,79.5C 44.7335,66.3673 50.4001,54.7007 59,44.5C 72.349,32.2488 86.5157,21.0821 101.5,11C 106.332,8.66766 111.332,6.83432 116.5,5.5 Z"/></g>
<g><path style="opacity:1" fill="#0e0e12" d="M 119.5,50.5 C 120.496,50.4142 121.329,50.7476 122,51.5C 128,122.167 134,192.833 140,263.5C 140.818,269.349 140.652,275.015 139.5,280.5C 138.504,280.586 137.671,280.252 137,279.5C 130.859,205.498 124.692,131.498 118.5,57.5C 118.503,54.9746 118.837,52.6413 119.5,50.5 Z"/></g>
<g><path style="opacity:1" fill="#0e0e0f" d="M 269.5,99.5 C 288.251,97.6772 305.918,101.177 322.5,110C 325.167,112.333 325.167,114.667 322.5,117C 286.186,118.423 264.019,136.923 256,172.5C 253.965,187.091 255.965,201.091 262,214.5C 264.718,215.013 267.551,215.013 270.5,214.5C 275.239,193.26 288.239,180.093 309.5,175C 337.881,172.259 357.048,184.093 367,210.5C 368.217,216.101 368.717,221.768 368.5,227.5C 392.281,230.777 407.114,244.11 413,267.5C 414.976,301.853 398.976,321.519 365,326.5C 333.085,322.893 301.252,318.726 269.5,314C 244.449,309.949 229.616,295.449 225,270.5C 223.739,261.621 224.905,253.121 228.5,245C 202.203,220.321 193.703,190.488 203,155.5C 215.314,125.011 237.48,106.345 269.5,99.5 Z"/></g>
<g><path style="opacity:1" fill="#fadd60" d="M 270.5,103.5 C 287.457,102.087 303.457,105.253 318.5,113C 282.505,115.985 260.338,135.152 252,170.5C 250.101,185.985 251.935,200.985 257.5,215.5C 251.434,219.383 245.434,223.55 239.5,228C 235.95,231.883 232.783,236.049 230,240.5C 206.974,218.423 198.974,191.756 206,160.5C 216.987,129.592 238.487,110.592 270.5,103.5 Z"/></g>
<g><path style="opacity:1" fill="#e9e7f9" d="M 362.5,211.5 C 362.719,212.675 362.386,213.675 361.5,214.5C 356.099,217.074 351.099,220.241 346.5,224C 343.619,226.279 341.619,229.112 340.5,232.5C 337.354,233.31 335.687,235.31 335.5,238.5C 341.325,236.098 347.325,233.932 353.5,232C 380.469,228.391 398.635,239.224 408,264.5C 412.89,292.89 401.723,311.724 374.5,321C 361.757,321.845 349.09,321.178 336.5,319C 311.788,315.548 287.122,311.881 262.5,308C 241.402,300.9 230.069,286.233 228.5,264C 230.654,240.175 243.321,225.175 266.5,219C 272.891,218.242 279.224,218.576 285.5,220C 292.831,222.67 299.831,225.836 306.5,229.5C 306.813,226.163 305.48,223.829 302.5,222.5C 297.296,212.96 289.629,206.293 279.5,202.5C 293.784,180.128 313.451,173.628 338.5,183C 350.606,189.049 358.606,198.549 362.5,211.5 Z"/></g>
<g><path style="opacity:1" fill="#cacaf3" d="M 279.5,202.5 C 289.629,206.293 297.296,212.96 302.5,222.5C 293.924,217.215 284.59,214.215 274.5,213.5C 275.608,209.478 277.275,205.812 279.5,202.5 Z"/></g>
<g><path style="opacity:1" fill="#cbcbf4" d="M 362.5,211.5 C 364.578,216.139 364.912,220.972 363.5,226C 355.316,226.462 347.649,228.628 340.5,232.5C 341.619,229.112 343.619,226.279 346.5,224C 351.099,220.241 356.099,217.074 361.5,214.5C 362.386,213.675 362.719,212.675 362.5,211.5 Z"/></g>
<g><path style="opacity:1" fill="#0d0c12" d="M 144.5,347.5 C 233.422,361.656 322.422,375.489 411.5,389C 412.756,389.417 413.423,390.25 413.5,391.5C 412.688,392.993 411.355,393.66 409.5,393.5C 321.209,379.422 232.875,365.588 144.5,352C 121.315,348.96 100.648,354.627 82.5,369C 80.9751,370.009 79.3084,370.509 77.5,370.5C 77.3433,369.127 77.51,367.793 78,366.5C 97.3857,350.941 119.552,344.607 144.5,347.5 Z"/></g>
<g><path style="opacity:1" fill="#e9e7f9" d="M 143.5,390.5 C 151.87,390.377 160.203,390.877 168.5,392C 251.536,406.148 334.536,420.481 417.5,435C 407.95,465.573 387.283,479.907 355.5,478C 308.14,470.607 260.807,463.107 213.5,455.5C 215.087,443.551 216.087,431.551 216.5,419.5C 195.291,417.536 174.124,415.203 153,412.5C 151.347,412.82 150.347,413.82 150,415.5C 147.316,425.239 144.483,434.905 141.5,444.5C 129.237,442.474 118.403,437.474 109,429.5C 102.649,416.215 105.815,405.715 118.5,398C 126.562,394.142 134.895,391.642 143.5,390.5 Z"/></g>
<g><path style="opacity:1" fill="#4f4f8a" d="M 153.5,417.5 C 173.339,418.716 193.005,421.05 212.5,424.5C 211.166,448.339 206.999,471.672 200,494.5C 198.6,497.902 196.433,500.736 193.5,503C 191.365,503.635 189.365,503.301 187.5,502C 183.093,497.188 179.426,491.855 176.5,486C 181.698,480.467 187.198,475.3 193,470.5C 193.854,468.393 193.188,467.059 191,466.5C 185.21,471.288 179.71,476.454 174.5,482C 169.442,486.057 164.108,489.724 158.5,493C 154.928,494.405 151.261,494.738 147.5,494C 143.67,489.023 142.004,483.357 142.5,477C 143.917,456.749 147.583,436.916 153.5,417.5 Z"/></g>
<g><path style="opacity:1" fill="#9f9ff1" d="M 421.5,435.5 C 425.154,435.942 428.821,436.276 432.5,436.5C 429.85,483.988 404.85,507.488 357.5,507C 307.794,498.656 258.128,490.156 208.5,481.5C 210.219,474.24 211.552,466.906 212.5,459.5C 259.149,466.998 305.816,474.498 352.5,482C 388.189,485.48 411.189,469.98 421.5,435.5 Z"/></g>
</svg>
